<svg xmlns="http://www.w3.org/2000/svg" width="1100" height="760" viewBox="0 0 1100 760" role="img" aria-labelledby="title description"><title id="title">A plank and a bucket do different jobs</title><desc id="description">A simplified ship cutaway shows a plank closing a hull hole while a bucket empties existing water over the rail.</desc><defs><marker id="arrow" viewBox="0 0 10 10" refX="8" refY="5" markerWidth="8" markerHeight="8" orient="auto-start-reverse"><path d="M0 0L10 5L0 10Z" fill="#68d9d5"/></marker><marker id="gold" viewBox="0 0 10 10" refX="8" refY="5" markerWidth="8" markerHeight="8" orient="auto-start-reverse"><path d="M0 0L10 5L0 10Z" fill="#f5cc74"/></marker></defs><rect width="1100" height="760" fill="#121b24"/><text x="55" y="76" font-family="Arial, sans-serif" font-size="42" fill="#e8edf0" text-anchor="start">A plank and a bucket do different jobs</text>
<path d="M150 307H950L850 570H285Z" fill="#263b46" stroke="#a8b8c3" stroke-width="8"/><path d="M229 468H889L850 567H285Z" fill="#236b86" opacity=".8"/>
<path d="M233 479Q252 465 274 479T315 479T356 479T397 479T438 479T479 479T520 479T561 479T602 479T643 479T684 479T725 479T766 479T807 479T870 479" stroke="#68d9d5" stroke-width="5" fill="none"/>
<path d="M179 400L245 400" stroke="#68d9d5" stroke-width="7" marker-end="url(#arrow)"/><rect x="219" y="386" width="115" height="44" rx="4" transform="rotate(69 276 408)" fill="#b79362" stroke="#f5cc74" stroke-width="4"/>
<path d="M700 405H781L769 462H712Z" stroke="#e8edf0" stroke-width="6" fill="none"/><path d="M715 405Q742 369 766 405" stroke="#e8edf0" stroke-width="5" fill="none"/>
<path d="M780 401Q875 248 974 372" fill="none" stroke="#68d9d5" stroke-width="6" marker-end="url(#arrow)"/>
<text x="249" y="216" font-family="Arial, sans-serif" font-size="38" fill="#f5cc74" text-anchor="middle">Seal the leak</text><text x="249" y="262" font-family="Arial, sans-serif" font-size="32" fill="#a8b8c3" text-anchor="middle">Planks</text><text x="796" y="216" font-family="Arial, sans-serif" font-size="38" fill="#68d9d5" text-anchor="middle">Remove the water</text><text x="796" y="262" font-family="Arial, sans-serif" font-size="32" fill="#a8b8c3" text-anchor="middle">Bailing</text>
<text x="550" y="650" font-family="Arial, sans-serif" font-size="36" fill="#e8edf0" text-anchor="middle">Check below deck and call the condition.</text><text x="550" y="704" font-family="Arial, sans-serif" font-size="32" fill="#a8b8c3" text-anchor="middle">Meanwhile, the helm avoids more damage.</text>
</svg>
